<svg viewBox="0 0 16 17" fill="none" xmlns="http://www.w3.org/2000/svg">
<path d="M8 16.5C6.89333 16.5 5.85333 16.29 4.88 15.87C3.90667 15.45 3.06 14.88 2.34 14.16C1.62 13.44 1.05 12.5933 0.63 11.62C0.21 10.6467 0 9.60667 0 8.5C0 7.39333 0.21 6.35333 0.63 5.38C1.05 4.40667 1.62 3.56 2.34 2.84C3.06 2.12 3.90667 1.55 4.88 1.13C5.85333 0.71 6.89333 0.5 8 0.5C9.10667 0.5 10.1467 0.71 11.12 1.13C12.0933 1.55 12.94 2.12 13.66 2.84C14.38 3.56 14.95 4.40667 15.37 5.38C15.79 6.35333 16 7.39333 16 8.5C16 9.60667 15.79 10.6467 15.37 11.62C14.95 12.5933 14.38 13.44 13.66 14.16C12.94 14.88 12.0933 15.45 11.12 15.87C10.1467 16.29 9.10667 16.5 8 16.5ZM8.4 15.3C10.2267 15.1667 11.75 14.46 12.97 13.18C14.19 11.9 14.8 10.34 14.8 8.5C14.8 6.66 14.19 5.1 12.97 3.82C11.75 2.54 10.2267 1.83333 8.4 1.7V15.3Z" fill="#000000"/>
</svg>
